<svg id="Layer_1" data-name="Layer 1" xmlns="http://www.w3.org/2000/svg" viewBox="0 0 330 330"><defs><style>.cls-1{fill:gray;}.cls-2{fill:#fff;}.cls-3{fill:none;}</style></defs><title>Blast Resistance</title><path class="cls-1" d="M165,1A164,164,0,1,0,329,165,164,164,0,0,0,165,1Zm91,157.5c-5.44,10.44-20.07,17.17-34.32,13.33-9.71-2.62-13.43-.07-16.38,8.76-3.14,9.4-7.79,18.3-11.87,27.37-.22.5-1.3.61-4.31,1.9.94-7.65,1.73-14.14,2.79-22.81-9.85,11.66-7.3,28.58-23.26,35.08-1.81-17.12-3.49-33-5.17-48.82l-2.27.17c-1.94,15.65-3.87,31.3-6.11,49.35-16.66-11.58-13.21-31.35-22.56-44.65.54,11.29,1.07,22.5,1.61,33.71l27.83,23,26.79-22.25c.72,9.72,1.32,17.75,2,27.19l50.62-9.58-27.29,28.93H109.81L82.52,230.25l51.19,9.65V212.32l-3.83.31c-5.84-14.14-11.69-28.28-17.73-42.91-4.09.69-7.53,1.29-11,1.85-13.27,2.11-27.09-3.31-32.6-12.78s-3.65-24.27,5.83-34.25c6.09-6.42,10.36-12.71,12.83-21.69,3.31-12,14-17.34,26.45-19.2a27.13,27.13,0,0,0,13.25-5.8c21.07-18.47,49.41-18.28,70.62.53a23.6,23.6,0,0,0,12.23,5.24c15.87,1.89,26.06,11,29.29,26.74.65,3.18,2.81,6.13,4.64,9,1.05,1.63,2.89,2.72,4.26,4.17C258,134.18,261.25,148.36,256,158.5Z"/><path class="cls-1" d="M127.14,256.82c-3-4.06-4.37-4.07-6.87-7.42l23.29,3.85c1-5.56,1.86-10.26,2.87-15.85l15.64,12.21,16.34-12.8c.7,6.63,1.22,11.52,1.77,16.72l23-4.24L197.59,258c1,1.07,3.69-.8,4.73.27,7.57-6.56,13.53-10.18,21.11-16.74-.37-.77-.74-1.55-1.1-2.32l-36,6.22c-.83-7.72-1.52-14.15-2.38-22.12l-22.06,18-22.63-18.68c-.4,9-.7,15.59-1,22.95l-36.33-6.3C109.16,247.43,113.2,255.8,127.14,256.82Z"/><path class="cls-2" d="M133.71,212.32l.42,0v-.4l-.41-.34Z"/><path class="cls-3" d="M85,201.1,81.38,205a5.89,5.89,0,0,1-8.25.37l-9.82-8.82a5.85,5.85,0,0,1-.44-8.3l4.38-4.7L64,176.19l-2.84,11.65L51,189.63l5.37,8.06-7,9.41,10.46.45,5.67,16.58L71,210.29,82.23,220,80.88,207.4l9.56-1.94S87.65,203.25,85,201.1Z"/></svg>