<svg id="fi-marker" xmlns="http://www.w3.org/2000/svg" viewBox="0 0 12.204 17.13">
  <defs>
    <style>
      .cls-1 {
        fill: gray;
      }
    </style>
  </defs>
  <path id="Path_35" data-name="Path 35" class="cls-1" d="M27.9,10.417a6.1,6.1,0,0,0-4.89,9.753l3.914,6.78a1.137,1.137,0,0,0,.073.127l.009.015h0a1.095,1.095,0,0,0,1.727.068l.01.006.039-.067a1.132,1.132,0,0,0,.144-.25L32.764,20.2A6.1,6.1,0,0,0,27.9,10.417Zm-.06,9.2a3.007,3.007,0,1,1,3.007-3.007A3.006,3.006,0,0,1,27.841,19.613Z" transform="translate(-21.799 -10.417)"/>
</svg>
