<svg id="Layer_1" data-name="Layer 1" xmlns="http://www.w3.org/2000/svg" viewBox="0 0 86 73.19"><defs><style>.cls-1{fill:#231f20;}</style></defs><path class="cls-1" d="M86.19,4.6A4.47,4.47,0,0,0,81.72.13a4.76,4.76,0,0,0-.66.07V.1H4.25v0A4.47,4.47,0,0,0-.22,4.6h0v64h0v.49h0a4.45,4.45,0,0,0,4.42,4v0h76.8V73a4.9,4.9,0,0,0,.67.07,4.45,4.45,0,0,0,4.42-4h.08V4.6ZM76.26,63.15H65.4a1.54,1.54,0,0,0-.16-.44h0L42.54,23.35h0a3.07,3.07,0,0,0-5.57.08L21.84,49.62l-3.7-6.41h0a1.62,1.62,0,0,0-1.46-.92,1.64,1.64,0,0,0-1.48,1L9.74,52.71V10.09H76.26Z"/><circle class="cls-1" cx="61.12" cy="25.19" r="10.1"/></svg>