<?xml version="1.0" encoding="utf-8"?>
<svg id="fi-megaphone" xmlns="http://www.w3.org/2000/svg" width="45" height="43.554" viewBox="0 0 45 43.554">
  <path id="Path_43" data-name="Path 43" d="M21.325,28.507a8.938,8.938,0,1,0,0,17.875,1.622,1.622,0,0,0,1.6-1.373h.026V30.134A1.627,1.627,0,0,0,21.325,28.507Z" transform="translate(-12.387 -19.587)"/>
  <path id="Path_44" data-name="Path 44" d="M66.487,15.221a1.619,1.619,0,0,0-2.612-1.286L49.562,22.2H36.66a1.626,1.626,0,0,0-1.626,1.626V39.264h.02A1.621,1.621,0,0,0,36.66,40.69H48.109l15.649,9.034a1.6,1.6,0,0,0,2.712-1.369h.018V15.316h-.01C66.479,15.284,66.487,15.254,66.487,15.221Z" transform="translate(-21.487 -13.595)"/>
  <path id="Path_45" data-name="Path 45" d="M48.165,73.266l-.023-.039c-.008-.014-.011-.029-.02-.044s-.019-.025-.028-.038l-4.968-8.6-.019.011A1.616,1.616,0,0,0,42,63.9v-.018h-4.32v.011A1.617,1.617,0,0,0,36.4,66.318a1.537,1.537,0,0,0,.131.181l-.019.011L42.3,76.539v0l0,0,.058.1.01-.006a1.621,1.621,0,0,0,2.151.5,1.659,1.659,0,0,0,.239-.172l.015.026,2.981-1.72-.014-.024a1.62,1.62,0,0,0,.413-1.978Z" transform="translate(-21.949 -33.799)"/>
</svg>
