<svg xmlns="http://www.w3.org/2000/svg" viewBox="0 0 330 330"><defs><title>Windstorm &amp;amp; Hurricane HVHZ</title><polygon class="cls-1" points="182 271.29 168.74 271.29 168.74 259.15 163.47 259.15 163.47 287.37 168.74 287.37 168.74 275.04 182 275.04 182 287.37 187.26 287.37 187.26 259.15 182 259.15 182 271.29"/><polygon class="cls-1" points="124.82 271.29 111.57 271.29 111.57 259.15 106.3 259.15 106.3 287.37 111.57 287.37 111.57 275.04 124.82 275.04 124.82 287.37 130.09 287.37 130.09 259.15 124.82 259.15 124.82 271.29"/><path class="cls-1" d="M155.19,259.52a1.86,1.86,0,0,0-.61.82L148,277.55a15.44,15.44,0,0,0-.61,1.85q-.27,1-.51,2.1-.27-1.1-.57-2.1c-.2-.67-.42-1.29-.64-1.85L139,260.34a2.05,2.05,0,0,0-.65-.86,1.75,1.75,0,0,0-1.11-.33H133l11.39,28.22h4.74l11.4-28.22h-4.23A1.78,1.78,0,0,0,155.19,259.52Z"/><path class="cls-1" d="M192.1,263.33h14.09l-14.52,20.54a3.36,3.36,0,0,0-.35.68,2.12,2.12,0,0,0-.14.75v2.07h21.47v-4.2H198l14.48-20.45a2.82,2.82,0,0,0,.51-1.64v-1.93H192.1Z"/><path class="cls-2" d="M165,1A164,164,0,1,0,329,165,164,164,0,0,0,165,1ZM130.09,287.37h-5.27V275H111.57v12.33H106.3V259.15h5.27v12.14h13.25V259.15h5.27Zm19.06,0h-4.74L133,259.15h4.21a1.75,1.75,0,0,1,1.11.33,2.05,2.05,0,0,1,.65.86l6.65,17.21c.22.56.44,1.18.64,1.85s.39,1.37.57,2.1q.24-1.1.51-2.1a15.44,15.44,0,0,1,.61-1.85l6.61-17.21a1.86,1.86,0,0,1,.61-.82,1.78,1.78,0,0,1,1.13-.37h4.23Zm38.11,0H182V275H168.74v12.33h-5.27V259.15h5.27v12.14H182V259.15h5.27ZM213,261.08a2.82,2.82,0,0,1-.51,1.64L198,283.17h14.66v4.2H191.18V285.3a2.12,2.12,0,0,1,.14-.75,3.36,3.36,0,0,1,.35-.68l14.52-20.54H192.1v-4.18H213Zm-4-159c22.48,22.76,23.15,59.08,6,84.14-18.43,26.93-46.46,40.84-57.31,44.71-47.15,16.82-89.53,7.64-89.53,7.64a152.73,152.73,0,0,0,33.48-10.41c19-8.59,24.27-25,13.27-37.37-15.4-17.26-26.54-46.88-4.76-80.9,21.91-34.23,54.7-46.5,73.71-51.55S231,52.5,255.79,55.68c-21.39,5.42-39.28,11.16-48.47,23.45A17.3,17.3,0,0,0,209,102.08Z"/><path class="cls-2" d="M163.32,166.52a18.89,18.89,0,1,1,18-19.78A18.89,18.89,0,0,1,163.32,166.52Z"/><path class="cls-2" d="M161.49,128.78a18.89,18.89,0,1,0,19.78,18A18.89,18.89,0,0,0,161.49,128.78Z"/></svg>