<svg id="Layer_1" data-name="Layer 1" xmlns="http://www.w3.org/2000/svg" viewBox="0 0 45 45"><defs><style>.cls-1{fill:#fff;}</style></defs><title>youtube</title><polygon class="cls-1" points="20.23 25.83 26.03 22.5 20.23 19.21 20.23 25.83"/><path class="cls-1" d="M22.5,0A22.5,22.5,0,1,0,45,22.5,22.5,22.5,0,0,0,22.5,0Zm11,24.53a18.71,18.71,0,0,1-.4,3.37,2.92,2.92,0,0,1-.73,1.21,2.76,2.76,0,0,1-1.26.73,28.42,28.42,0,0,1-4.95.41l-3.69,0-3.69,0a28.42,28.42,0,0,1-4.95-.41,2.76,2.76,0,0,1-1.26-.73,2.92,2.92,0,0,1-.73-1.21,18.71,18.71,0,0,1-.4-3.37l0-2c0-.59,0-1.27,0-2a18.15,18.15,0,0,1,.4-3.32,2.85,2.85,0,0,1,.73-1.26,2.76,2.76,0,0,1,1.26-.73,28.42,28.42,0,0,1,4.95-.41l3.69,0,3.69,0a28.42,28.42,0,0,1,4.95.41,2.76,2.76,0,0,1,1.26.73,2.85,2.85,0,0,1,.73,1.26,18.15,18.15,0,0,1,.4,3.32l0,2Z"/></svg>