<svg xmlns="http://www.w3.org/2000/svg" width="40.822" height="54.429" viewBox="0 0 40.822 54.429">
  <g id="Group_94" data-name="Group 94" transform="translate(-971.224 -242.633)">
    <path id="file-word" d="M23.813,14.458V0H2.551A2.545,2.545,0,0,0,0,2.551V51.878a2.545,2.545,0,0,0,2.551,2.551H38.271a2.545,2.545,0,0,0,2.551-2.551V17.009H26.364A2.559,2.559,0,0,1,23.813,14.458Zm17.009-1.5v.648H27.215V0h.648A2.549,2.549,0,0,1,29.67.744L40.078,11.162A2.543,2.543,0,0,1,40.822,12.959Z" transform="translate(971.224 242.633)"/>
    <g id="Group_93" data-name="Group 93" transform="translate(-54.584 133.279)">
      <g id="Path_105" data-name="Path 105" transform="translate(1042.526 133.684)" fill="none">
        <path d="M4.015,0A4.015,4.015,0,1,1,0,4.015,4.015,4.015,0,0,1,4.015,0Z" stroke="none"/>
        <path d="M 4.014514923095703 1.99999475479126 C 2.90370512008667 1.99999475479126 1.99999475479126 2.90370512008667 1.99999475479126 4.014514923095703 C 1.99999475479126 5.125314712524414 2.90370512008667 6.029025077819824 4.014514923095703 6.029025077819824 C 5.125314712524414 6.029025077819824 6.029025077819824 5.125314712524414 6.029025077819824 4.014514923095703 C 6.029025077819824 2.90370512008667 5.125314712524414 1.99999475479126 4.014514923095703 1.99999475479126 M 4.014514923095703 -4.76837158203125e-06 C 6.231675148010254 -4.76837158203125e-06 8.029025077819824 1.797354698181152 8.029025077819824 4.014514923095703 C 8.029025077819824 6.231675148010254 6.231675148010254 8.029025077819824 4.014514923095703 8.029025077819824 C 1.797354698181152 8.029025077819824 -4.76837158203125e-06 6.231675148010254 -4.76837158203125e-06 4.014514923095703 C -4.76837158203125e-06 1.797354698181152 1.797354698181152 -4.76837158203125e-06 4.014514923095703 -4.76837158203125e-06 Z" stroke="none" fill="#fff"/>
      </g>
      <circle id="Ellipse_19" data-name="Ellipse 19" cx="1" cy="1" r="1" transform="translate(1045.584 136.721)" fill="#fff"/>
      <path id="Path_106" data-name="Path 106" d="M0,0H2V6H0Z" transform="translate(1045.584 128.721)" fill="#fff"/>
      <path id="Union_13" data-name="Union 13" d="M1.427,14.24h0l.09-1.493,4.273-7.4H3.679V6.684H2.341V2.67H3.679V4.008H6.563L8.877,0l2.318,1.338L3.834,14.085h0l-1.248.824L0,18.053Z" transform="translate(1035.501 140.381)" fill="#fff"/>
      <path id="Union_16" data-name="Union 16" d="M1.427,3.812h0l.09,1.493,4.273,7.4H3.679V11.369H2.341v4.014H3.679V14.045H6.563l2.314,4.008,2.318-1.338L3.834,3.967h0L2.586,3.143,0,0Z" transform="translate(1057.401 158.434) rotate(180)" fill="#fff"/>
    </g>
  </g>
</svg>
