<svg id="Layer_1" data-name="Layer 1" xmlns="http://www.w3.org/2000/svg" viewBox="0 0 330 330"><defs><style>.cls-1{fill:gray;}</style></defs><title>Fire</title><path class="cls-1" d="M165,1A164,164,0,1,0,329,165,164,164,0,0,0,165,1Zm3,276.59c2.68-2.08,48.39-30.09,41.67-59.14-3.61-15.59-25.18-53.46-32.11-59.15-2.15,37.26-36.1,36.22-47.27,61.47-14.3,32.44,12.23,56.12,12.23,56.12C91.78,274.61,63.23,227,91.63,183.52c19.48-29.84,74.15-60.38,61.61-115.5,47.72,33.34,94.09,71.59,104.85,115.16C264.07,207.4,248.94,272.06,168,277.59Z"/></svg>