<svg id="Layer_1" data-name="Layer 1" xmlns="http://www.w3.org/2000/svg" viewBox="0 0 330 330"><defs><style>.cls-1{fill:gray;}</style></defs><title>Intrusion Resistance</title><path class="cls-1" d="M165,0A165,165,0,1,0,330,165,165,165,0,0,0,165,0Zm2.38,69a35.55,35.55,0,0,1,52.91,47.5L210.5,127,181,158.63l-24,25.74a6.57,6.57,0,0,1-9.27.49l-43.13-38.71a6.56,6.56,0,0,1-.5-9.28l26.75-28.65,29.52-31.65ZM128.8,76.14a21.62,21.62,0,0,1,22-5.24L124.05,99.59A21.63,21.63,0,0,1,128.8,76.14Zm45.37,187.07-49.42-42.33-23.92,60.67L76,208.87l-45.83-2,30.77-41.25L37.32,130.3l44.52-7.86L94.29,71.37l14.21,32.05L89.27,124a25.74,25.74,0,0,0,2,36.4l43.05,38.64a25.75,25.75,0,0,0,36.18-1.62l15.72-16.85c11.75,9.42,24,19.1,24,19.1l-41.91,8.51ZM259.41,238l-71.62-72,29.53-31.65,72.67,73A21.62,21.62,0,1,1,259.41,238Z"/></svg>