<svg id="Layer_1" data-name="Layer 1" xmlns="http://www.w3.org/2000/svg" viewBox="0 0 330 330"><path d="M165 0a165 165 0 10165 165A165 165 0 00165 0zm2.38 69a35.55 35.55 0 0152.91 47.5L210.5 127 181 158.63l-24 25.74a6.57 6.57 0 01-9.27.49l-43.13-38.71a6.56 6.56 0 01-.5-9.28l26.75-28.65 29.52-31.65zm-38.58 7.14a21.62 21.62 0 0122-5.24l-26.75 28.69a21.63 21.63 0 014.75-23.45zm45.37 187.07l-49.42-42.33-23.92 60.67L76 208.87l-45.83-2 30.77-41.25-23.62-35.32 44.52-7.86 12.45-51.07 14.21 32.05L89.27 124a25.74 25.74 0 002 36.4l43.05 38.64a25.75 25.75 0 0036.18-1.62l15.72-16.85c11.75 9.42 24 19.1 24 19.1l-41.91 8.51zM259.41 238l-71.62-72 29.53-31.65 72.67 73A21.62 21.62 0 11259.41 238z" fill="gray"/></svg>