<svg xmlns="http://www.w3.org/2000/svg" width="41.147" height="54.862" viewBox="0 0 41.147 54.862">
  <path id="file-pdf" d="M19.491,27.442c-.536-1.714-.525-5.025-.214-5.025C20.177,22.416,20.091,26.37,19.491,27.442ZM19.309,32.5a49.444,49.444,0,0,1-3.043,6.718,39.456,39.456,0,0,1,6.74-2.347,13.88,13.88,0,0,1-3.7-4.372ZM9.226,45.872c0,.086,1.414-.579,3.74-4.308C12.248,42.24,9.847,44.19,9.226,45.872ZM26.574,17.144H41.147V52.291a2.566,2.566,0,0,1-2.572,2.572h-36A2.566,2.566,0,0,1,0,52.291V2.572A2.565,2.565,0,0,1,2.572,0H24V14.573A2.579,2.579,0,0,0,26.574,17.144Zm-.857,18.409a10.755,10.755,0,0,1-4.575-5.765c.482-1.982,1.243-4.993.664-6.879-.5-3.15-4.543-2.84-5.122-.729-.536,1.961-.043,4.725.868,8.251a100.618,100.618,0,0,1-4.372,9.194c-.011,0-.011.011-.021.011-2.9,1.489-7.886,4.768-5.84,7.286a3.33,3.33,0,0,0,2.3,1.072c1.918,0,3.825-1.929,6.547-6.622a61.079,61.079,0,0,1,8.465-2.486,16.239,16.239,0,0,0,6.858,2.089c3.129,0,3.343-3.429,2.111-4.65C32.114,34.868,27.785,35.285,25.717,35.553Zm14.68-24.3L29.9.75A2.57,2.57,0,0,0,28.074,0h-.643V13.716H41.147v-.654A2.563,2.563,0,0,0,40.4,11.251Zm-7.94,27.356c.439-.289-.268-1.275-4.586-.964C31.846,39.336,32.457,38.607,32.457,38.607Z" transform="translate(0)"/>
</svg>
