<?xml version="1.0" encoding="utf-8"?><svg xmlns="http://www.w3.org/2000/svg" viewBox="0 0 300 200"><defs><style>.cls-1{fill:#006c35;}.cls-2{fill:#fff;}</style></defs><title>saudi-arabia</title><g id="Layer_2" data-name="Layer 2"><g id="Countryflags.com"><rect id="_2" data-name="2" class="cls-1" width="300" height="200"/><path id="_1" data-name="1" class="cls-2" d="M129.31,47.24a1.47,1.47,0,0,0-.71.27,5.32,5.32,0,0,0-2.23,3.74c0,1-.23,1,.42,1.6.46.67.92.6,1.86.11a2,2,0,0,0,.9-1.31c.22-1.11-1.17.53-1.35-.71s.58-1.63,1.42-2.74c0-.53,0-1-.31-1Zm13.63.07c-.26,0-.58.37-1,1.18s-1.69,2.12-.7,4.75a14.17,14.17,0,0,1,.78,7.4,14.41,14.41,0,0,1-1.43,2,2.33,2.33,0,0,1-3,.41,3.24,3.24,0,0,1-1.8-2.54c.07-2.74.22-7.22-.28-8.17a1.47,1.47,0,0,0-2.47-.5c-2.5,2.28-3.73,6.14-4.49,9.21-.69,2.24-1.43,1.59-1.95.69-1.26-1.18-1.35-10.43-2.87-8.91-2.44,7,1.4,14.61,4.06,13.87,1.92.8,3.14-2.86,3.92-6.86.54-1.12,1-1.25,1.23-.68-.07,5.33.38,6.51,1.75,8.13a4.41,4.41,0,0,0,5.77.1L142.8,65a1.43,1.43,0,0,1,2-.1c.73.66.64,1.8,2.19,2.59,1.31.52,4.1.13,4.75-1,.87-1.49,1.09-2,1.49-2.57.62-.83,1.69-.47,1.69-.2-.1.46-.73.91-.3,1.75.74.55.91.19,1.35.07,1.55-.74,2.71-4.1,2.71-4.1.07-1.25-.65-1.16-1.1-.9s-.63.49-1.23.85c-.75.11-2.22.61-2.95-.51-.74-1.35-.74-3.24-1.31-4.6,0-.1-1-2.15-.07-2.28.46.09,1.45.35,1.61-.48.48-.81-1-3.11-2.09-4.27a2.25,2.25,0,0,0-3.36-.1c-.85.78-.72,1.65-.89,2.48a3.88,3.88,0,0,0,.79,3.37c.84,1.67,2.38,3.81,1.87,6.83a2.72,2.72,0,0,1-2.46,1.25c-.65-.14-1.72-.43-2.29-4.61-.42-3.17.11-7.61-1.23-9.69-.31-.79-.57-1.55-1-1.49Zm-4.32.34c-.4,0-.85.51-1.22,1.42a23.1,23.1,0,0,0-.64,4.34c-.25,1.08,1.13,1.54,1.76.15a13.36,13.36,0,0,0,1-4.73c-.15-.82-.51-1.22-.92-1.18Zm15.93.28c-.42,0-.75.29-.88.9a9.47,9.47,0,0,0,.17,3.45,12.08,12.08,0,0,0,1.93,2.94c2.76,3.71,5.42,7.44,8,11.29.4,2.86.7,5.66.89,8.45a171.06,171.06,0,0,1,.16,20.16c1.14,0,3-1.85,3.62-4.62.42-3.84-.14-11.67-.18-13.94,0-.94-.09-2.06-.15-3.24,3,4.87,5.87,10,8.71,15.7,1-.49.81-6.32.2-7.14-2.27-4.89-5.41-9.71-6.41-11.57-.36-.67-1.59-2.54-3.05-4.7-.27-3.08-.56-5.69-.75-6.48-.47-3.25,1.33.37,1.08-1.52-.58-3.25-2.38-5.46-4.5-8.44-.68-1-.67-1.16-1.72.24a6.26,6.26,0,0,0-.44,3.74c-.28-.41-.62-.88-1.11-1.48-1.83-1.57-1.94-1.65-3.46-2.94a3.77,3.77,0,0,0-2.09-.8Zm47.2.49c-.2,0-.43.07-.68.44a2.86,2.86,0,0,0-1,2.15c.12,1.72.42,3.47.54,5.19l.12.68a6,6,0,0,0-.44-.51c-3.34-3.51,1.54-.57-.63-3.29a26.45,26.45,0,0,0-3.95-3.87c-.79-.51-1.27-1.48-1.53.17a32.94,32.94,0,0,0-.11,4.38,5.89,5.89,0,0,0,1.31,2.73c2.23,2.74,4.51,5.65,6.8,8.7.48,6.2.61,11.89,1.1,18.11-.07,2.66-.89,6.19-1.66,6.52,0,0-1.18.68-2-.07-.57-.23-2.87-3.84-2.87-3.84a1.75,1.75,0,0,0-2.8,0c-2.31,2.23-3.36,6.41-4.93,9.29-.4.64-1.54,1.19-2.81,0-3.22-4.4-1.33-10.66-1.74-9.05-2.86,3.23-1.59,8.58-1,9.73,1,1.9,1.71,3.11,3.55,4a2.48,2.48,0,0,0,3.7-.4c1.69-1.74,1.71-6.21,2.5-7.1a1.48,1.48,0,0,1,2.63-.62,6.44,6.44,0,0,0,2.4,2.07,4,4,0,0,0,5.3.38,6.15,6.15,0,0,0,2.82-3.45c.8-2.13.41-13.26.23-19.45,1.19,1.67,2.36,3.38,3.52,5.11a124.82,124.82,0,0,1,.58,15.92c-.12,1,3.56-3,3.54-5,0-1.69,0-3.22,0-4.64,1.78,2.85,3.51,5.75,5.15,8.69,1-.54.66-6.27,0-7.06-1.71-2.87-3.9-6-5.6-8.38-.33-3-.79-6.6-1-7.7-.32-1.71-.65-4.27-1.14-6.3a22.79,22.79,0,0,1-.41-3.56c.2-.57,1,0,1.33-.64.55-.6-1.93-7-3.19-8.87-.45-.83-1.27-.54-2.29.8-.94.88-.59,2.89-.24,4.8.94,4.87,1.77,9.83,2.43,14.77-1.22-1.81-2.71-4-4.18-6.12,0-.21-.18-1-.18-1s-.21-4-.38-4.91c0-.37-.12-.48.28-.44a2.08,2.08,0,0,0,.73.49c.43.08.8-.64.54-1.3-1.31-2.41-2.61-4.83-3.92-7.25a1.15,1.15,0,0,0-.54-.35Zm-121.81.13c-.73,0-1.53.43-1.22,1.3-.18.47,1.42,2.08,1.7,3,.26.63-.25,2.65.28,2.84s1.15-1.4,1.4-2.89c.14-.82,0-3.6-1.86-4.18l-.3,0Zm138.76,0c-.16,0-.37.29-.67.94a8.61,8.61,0,0,0-.7,5.31,292.33,292.33,0,0,1,3.38,34.49,10.83,10.83,0,0,1-.67,2.84A23.43,23.43,0,0,1,216.73,96c-1.1.82-3.43,1.6-4.19,2.2-2.42,1.4-2.43,3-.48,3.06,3.37-.39,7.36-.66,10.1-4.81a16,16,0,0,0,1.64-6.24c.26-11.3-.14-22.34-1.84-30.51a15.25,15.25,0,0,1-.32-2.86c.22-.56,1.32,0,1.71-.59.58-.59-2.85-5-4-6.85-.24-.47-.39-.86-.6-.84Zm-35.32.19c-.14,0-.35.24-.73.74a16.48,16.48,0,0,0-.91,7.5c2.42,12.61,4.89,24.1,4.5,36.11,1.15,0,2.47-2.62,3-5.22A44.66,44.66,0,0,0,189,80c-.1-2.11-2.39-19.21-2.85-20.8-.56-3,2.23-.4,1.92-2.15-1-2.21-3.37-5.43-4.12-7.35-.29-.51-.32-1-.55-1Zm-86,.24a.89.89,0,0,0-.68.7c-.07.26.11.7-.13.84s-.66,0-.64-.69a1.25,1.25,0,0,0-.27-.63.52.52,0,0,0-.36-.08c-.23,0-.23.07-.35.26a2,2,0,0,0-.13.61c0,.26-.13.35-.33.39s-.16,0-.33-.09-.23-.16-.23-.35a2,2,0,0,0-.11-.65.69.69,0,0,0-.4-.22c-.9,0-1,1-.91,1.42-.07.07-.1,1.9,1.12,2.41,1.65.79,4.73.46,4.6-2.2,0-.23,0-1-.07-1.23a.71.71,0,0,0-.78-.49Zm22.08,0a3.7,3.7,0,0,0-1.5.42,2.84,2.84,0,0,0-.49,3.76c.84.39,1.67,1.23,1.11,1.7-2.36,2.52-8.51,6.74-8.82,7.51v.05h0s0,0,0,0h.06a17.18,17.18,0,0,0,4.59,0h0v0c1.33-.48,7.6-7.66,7.6-7.66-.32-.28-.62-.48-1-.76a.54.54,0,0,1,0-.9c1.56-.91,1.07-2.9.25-3.8a4,4,0,0,0-1.87-.38Zm57.7,0c-.17,0-.37.27-.68.92a10.56,10.56,0,0,0-1.18,5.32c1.6,11.12,2.1,20.86,3.15,32,.08,1.08-.07,2.64-.79,3.27C175,93.29,171.18,96.7,167,98.26c-.45.5,1.11,2.64,3.12,2.64,3.37-.39,6.33-2.28,9.08-7.26a13,13,0,0,0,2.06-5.58A121.72,121.72,0,0,0,179,59.81a4.53,4.53,0,0,1,.1-2c.22-.26,1,0,1.35-.64.57-.59-1.54-5.46-2.74-7.34-.24-.47-.39-.84-.6-.82Zm-89.39.34a1.47,1.47,0,0,0-1.11.94,32.06,32.06,0,0,0,.11,5.21,56.59,56.59,0,0,1,1.46,8.37c.11,4-2.28,1.71-2.17-.25.55-2.54.4-6.56-.09-7.57s-.84-1.27-1.79-1.1c-.75,0-2.69,2.07-3.23,5.57a30.86,30.86,0,0,0-.65,3.4C80,65.76,78.81,67,78,63.7c-.73-2.43-1.17-8.41-2.38-7-.34,4.67-.76,12.89,3.21,13.74,4.81.46,2.15-8.12,3.89-9.68.33-.77.94-.78,1,.19v7.29c0,2.37,1.51,3.07,2.72,3.56,1.26-.1,2.1-.06,2.59,1.16.2,4.2.41,8.42.6,12.62,0,0,2.91.83,3.05-7.09.14-4.65-.92-8.56-.3-9.46,0-.89,1.16-.94,2-.5,1.26.88,1.81,2,3.76,1.53,3-.81,4.76-2.26,4.8-4.53A19.59,19.59,0,0,0,101.5,59c.13-.4-.57-1.42-.44-1.82.54.84,1.34.77,1.53,0-.51-1.66-1.29-3.26-2.56-4-1-.92-2.59-.73-3.15,1.2-.26,2.23.8,4.86,2.42,7a6.73,6.73,0,0,1,.61,3.5,1.87,1.87,0,0,1-2.43-.48s-2.37-1.77-2.37-2.16c.63-4,.14-4.48-.21-5.59-.24-1.54-1-2-1.56-3.07a1.07,1.07,0,0,0-1.78,0c-1,1.81-.55,5.69.2,7.43.55,1.6,1.39,2.6,1,2.6-.32.91-1,.7-1.49-.35a26.18,26.18,0,0,1-.83-6.82c-.21-1.8-.44-5.64-1.63-6.61a1.13,1.13,0,0,0-1-.54Zm16.86,0c-.23,0-.5.17-.81.24a2.39,2.39,0,0,0-1.67,2.93c1.2,7.33,2,12.92,3.2,20.26.18.86-.54,2-1.47,1.87-1.57-1.06-2-3.23-4.66-3.13-2,0-4.17,2.14-4.45,4.18a10.24,10.24,0,0,0,0,4.8c1.37,1.65,3,1.48,4.45,1.1,1.19-.48,2.16-1.65,2.58-1.37h0c.26.45,0,4.27-5.58,7.21-3.41,1.53-6.12,1.9-7.58-.88-.91-1.74.06-8.37-2.17-6.84-6.59,17,15.44,19.36,17.9.7.16-.53.65-1.06,1-.93.15.07.29.27.34.65-.51,16.9-17,18-19.85,12.74-.7-1.25-.91-4-1-5.71a2.85,2.85,0,0,0-.67-1.83c-.67-.5-1.57.81-1.76,3.09a20.38,20.38,0,0,0-.2,4.1c.88,13.34,22.15,7.61,25.61-3.41,1.71-5.7,0-10,.54-10.53h.07l.08,0c2.11,2.28,5.07.29,5.72-.5a1,1,0,0,1,1.46-.13c1.65,1.18,4.54.62,5.14-1.47a45.92,45.92,0,0,0,.71-6.32,6.21,6.21,0,0,0-2.28.95.57.57,0,0,0-.17.3l-.27,1.81a.58.58,0,0,1,0,.14.73.73,0,0,1-.2.19c-.38.2-1,.08-1.08-.47-.51-2.32-2.61-2.62-3.88,1-.86.69-2.43.83-2.59-.21.21-2.42-.76-2.74-2.71-1.6-.63-4.78-1.25-9.35-1.88-14.13.81,0,1.56.57,2.3-.36-.8-2.5-2.5-7.59-3.46-8.06l0,0a.8.8,0,0,0-.13-.13l-.07,0s0,0-.06,0l-.12,0a.63.63,0,0,0-.27,0Zm65.74,0c-.84,0-1.78.51-1.41,1.56-.21.58,1.81,2.53,2.14,3.6.58,1.65-.45,3.21.16,3.44s1.34-1.7,1.64-3.5c.33-1.46-.71-4.45-2.18-5.06a1.34,1.34,0,0,0-.35,0Zm-51.21,1.8a1.23,1.23,0,0,1,1.07.81c.25.54.12,1-.27,1.14s-.91-.25-1.15-.79-.12-1,.27-1.15Zm95,2.46a1.25,1.25,0,0,0-1.28,1.7c-.19.63,1.64,2.75,1.94,3.9.27.83-.41,3.48.15,3.73s1.23-1.84,1.5-3.79c.15-1.07-.64-4.82-2-5.49a1.64,1.64,0,0,0-.32,0ZM161.61,55c.07.32.14.63.19,1,.16.7.29,1.38.44,2.07-.61-.84-1.11-1.51-1.33-1.75-1.37-1.64,0-1.08.7-1.27Zm12.1,6a.91.91,0,0,0-.68.72c-.07.26.12.69-.12.82s-.67.06-.65-.67a1.29,1.29,0,0,0-.27-.64.53.53,0,0,0-.36-.09c-.23,0-.23.07-.35.26a2.07,2.07,0,0,0-.13.62c0,.26-.12.34-.31.38s-.18,0-.35-.08-.23-.16-.23-.35a2,2,0,0,0-.11-.65.71.71,0,0,0-.4-.22c-.9,0-.95,1-.9,1.42-.07.07-.11,1.91,1.11,2.42,1.65.79,4.75.44,4.62-2.21,0-.24-.07-1-.09-1.24a.72.72,0,0,0-.78-.49Zm-55.24.55a1.38,1.38,0,0,0-.78.24,3.39,3.39,0,0,0-1.11,4.49,2.19,2.19,0,0,0,2.36.76c1.43.18,2.28-2.67,2.28-2.67s0-.81-1.65.71c-.72.13-.81-.13-1-.53a3.52,3.52,0,0,1,.22-2.23c.16-.45,0-.73-.33-.77Zm78.1.37a1.84,1.84,0,0,0-1.89,1.58c0,.65.29,1,.24,1.6-.09.34-.44.56-1.27.17.13-.12-.53-1.07-.53-1.07-.65-.39-1.52,0-2.08.39a3.16,3.16,0,0,0-.19,2.51c.93,1.72,4.12,4.65,5.64,4.68,0-1.55.18-3.61.26-4.89,0-.48.15-1,.62-1.14s1.26.47,1.27,0a6.56,6.56,0,0,0-.84-3.13,1.55,1.55,0,0,0-1.23-.67Zm-64.65,5.38-.06,0,0,0a7.49,7.49,0,0,1-.78.7c-.71.81-.84,1.38-.8,3,0,.17,1.36,3.83,2.48,6.41.75,2.68,1.45,5.74.94,8.64a21.27,21.27,0,0,1-8.73,9.12c-1.74.56-3.25.37-3.65,0h0a2.24,2.24,0,0,1-1-2.08h0c2.88-2,6.18-3.64,8.76-9.06.76-2.08,1-3.32.24-6.53a6.19,6.19,0,0,0-1.48-3l0,0c.49-.23,1.76.71,2,.12a9.52,9.52,0,0,0-2.51-4.64,2.12,2.12,0,0,0-3.09-.19c-1.06.59-1.29,2.71-.78,4.56.57,1.4,2.1,1.64,3.19,4.45v0c0,.17.38,2.09-.17,2.87-.45,1.39-6.17,5.9-6.58,6.18l0,0h0v0h0v0c0-.11,0-.4,0-.86,0-.85.31-2.76.28-3.09h0v0h0c-1.89,1.22-2.52,5-2.86,6.08-4.79,3.31-10.23,5.77-13.37,9.12-1.63,2.55,11.25-2.93,12.74-3.59l0,0c.28.31.31,1.4,1.16,2.39a6.82,6.82,0,0,0,7,2.24c4.64-1.68,7.32-4.84,10-8.35.39-.57,1-1,1.56-.58,1.87,4.19,7.27,7.17,14.24,7.48,1.61-2,.84-2.93.19-3.34-.21-.14-3.47-1.41-4-2.68-.32-1.18.46-2.22,2-3a69.8,69.8,0,0,0,13.14-2.51,11.59,11.59,0,0,1,1.45-4.5,2,2,0,0,1,.74-.8h0v0h0v0a.34.34,0,0,0,0-.13l-.72-.42-14.29-.07a1.16,1.16,0,0,1-.39-.2l0,0h0l0,0v0h0v0h0v0h0v0h0s0,0,0,0a1.13,1.13,0,0,1,.45-.26c3.41-.46,9.47-1.46,9.88-7.29-.07-3-1.3-5-5-5.57a5.05,5.05,0,0,0-4.37,5.77c-.13.79.26,2.33-.54,2.5-5.25.48-11,3.77-11.18,6.13h-.07l0,0h-.07l0,0a1.36,1.36,0,0,1-.72-1.45,28.1,28.1,0,0,0-3.6-12.22c-.74-.74-1.06-1-1.27-1.08h-.1Zm13.67,2.15a.9.9,0,0,0-.68.7c-.07.27.12.71-.12.84s-.67.06-.65-.67a1.29,1.29,0,0,0-.27-.64.51.51,0,0,0-.35-.09c-.23,0-.24.07-.36.26a2.07,2.07,0,0,0-.13.62c0,.26-.12.34-.31.38s-.17,0-.34-.08-.24-.16-.24-.35a2.06,2.06,0,0,0-.1-.65.74.74,0,0,0-.41-.22c-.9,0-.95,1-.9,1.42-.07.07-.11,1.91,1.11,2.42,1.65.79,5.57.32,4.62-2.21,0-.24-.07-1-.09-1.24a.72.72,0,0,0-.78-.49Zm55.19,2.27a.23.23,0,0,0-.14,0s-7.62,5.42-7.81,5.61c-.75.67-.38,3,0,2.76.55.21,8.22-5,8.08-5.6.33,0,.49-2.67-.13-2.78Zm-48,.8a1.94,1.94,0,0,1,1.11.3c.57.33.92.83.87,1.19,0,0,0,0,0,0s0,0,0,0,0,0,0,0l0,0v0l-.07.09a1.39,1.39,0,0,1-1.5-.13,1.49,1.49,0,0,1-.88-1.19s0,0,0,0a.5.5,0,0,1,.05-.13l0,0h0s0,0,.06-.06a.72.72,0,0,1,.37-.14ZM86,73.84c-4,.08-9.73,5.18-9.88,8,4.16-2,8.26-3.93,12.5-6-.69-1-.05-1.94-2.62-2Zm12.8,1.78a1.08,1.08,0,0,1,1,.74,1.28,1.28,0,0,1-.23,1.27h0s0,0,0,0c-.17.21-.75.12-1.16.12a1.11,1.11,0,0,1-1-.51c-.15-.45.29-.9.48-1.24h0l.08-.1a1.33,1.33,0,0,1,.69-.3ZM199.3,77.19A1.33,1.33,0,0,0,198.23,79c-.19.63,1,2.81,1.25,4,.27.82-.34,3.15.22,3.4s1.86-1.39,1.81-3.47c.15-1.06-.38-5-1.73-5.67a1.29,1.29,0,0,0-.48,0ZM114,81c-.62,0-1.17.38-.92,1.25,0,.64,1.75,1.41,1.86,2.88.26.6-.38,2.54.15,2.72s1.17-1.34,1.43-2.77c.14-.79-.62-3.54-1.9-4a2.56,2.56,0,0,0-.62,0Zm25.54,3.49h.16a44.84,44.84,0,0,0,6,.69c1.66.1,2.48,1.4.92,2s-3,.93-3,3.15a3.06,3.06,0,0,1,0,1.93l-.05.07h0v0h0l-.07,0h-.08a2.75,2.75,0,0,1-1.28-.5,8.09,8.09,0,0,1-4-5.85,1.49,1.49,0,0,1,1.5-1.55ZM77.14,87.24c-.1,0-.3.3-.57.64-2.35,3.74-2.56,9.33-1.26,11a2.75,2.75,0,0,0,2.66.89c1.48-.64,2.13-3.63,1.78-4.73-.49-.77-.89-.89-1.38-.24-1,2.11-1.47.67-1.56-.51a27.18,27.18,0,0,1,.3-5.92c.13-.84.12-1.13,0-1.13Zm80.06,4.92a1.11,1.11,0,0,0-.55.11,9.8,9.8,0,0,0-2.21,1.89c-.33.24-.29.46-.19.89.25.57.69.39,1.2.12.67-.09,1,.35.94,1.15a1.5,1.5,0,0,0,.13,1.44,1.12,1.12,0,0,0,1.4.17,26.06,26.06,0,0,1,4.83-1.68c.59,0,.55-1.59-.38-1.64a5.47,5.47,0,0,0-3.53,1.07c-.75.17-.88-.28-1-.68-.19-1,.42-1.72.3-2.48a1.79,1.79,0,0,0-.9-.36Zm51.26,1.91c-.29,0-.61.05-1.06.09s-.66.32-.75.91c0,.9.59.86,1.15,1.21a1,1,0,0,1,0,1.48c-.54.49-.92.76-1.45,1.25-.26.43-.41,1.09.36,1.3,1.42.4,4.72-1.75,4.72-1.79a1,1,0,0,0,.32-1.16c-.32-.36-1-.14-1.49-.2-.23,0-1-.11-.61-.76a4.64,4.64,0,0,0,.6-1.15c.22-.49,0-.82-.78-1.09a4.12,4.12,0,0,0-1-.09Zm-21.41,43.36h0a2.25,2.25,0,0,0-.77,4.15c-25,0-63.46-.42-71.7-.42-4.61,0-19.2-.55-19.48-.55,3.13,4.57,7.66,5.5,13.59,5.6,11.12,0,62.65-.14,77.31-.14a5.15,5.15,0,0,0,.92,5.38l.06,0,.1,0h0c1,.23,1.39-.47,1.72-1,1.58.14,10.44.27,11.25,0h0c.55.81,1.1,1.57,2.14,1.44,1.83-.4,3.27-.6,3.31-4.3,0,0-.18-6.33-4.33-5.93-1,.15-3.74.43-3.74.43-3.19-.38-5.53-.42-9.11-.55.33-.42.91-2.13.2-2.74a1.14,1.14,0,0,0-.85-.21h0v0h0a.17.17,0,0,1-.06-.06l0,0c-.18-.26-.28-.91-.4-1.07h0v0h0Zm1.7,9h0c3.65.18,7.08,0,10.74.21a1.33,1.33,0,0,1-.09,1.83l-.06,0h-.1l-3.07-.09a.47.47,0,0,0,0-.17c-.28-.84-2.32-.78-2.8-.13l0,0a.11.11,0,0,1,0,0l0,.06a.28.28,0,0,1,0,.09s0,.07,0,.1a28.9,28.9,0,0,1-4.65-.11c-.47-.59-.42-1.65.14-1.9Z"/></g></g></svg>