<?xml version="1.0" encoding="utf-8"?>
<svg id="fi-alert" xmlns="http://www.w3.org/2000/svg" width="45" height="39.494" viewBox="0 0 45 39.494">
  <path id="Path_52" data-name="Path 52" d="M53.364,50.371l0,0-.075-.13a1.979,1.979,0,0,0-.117-.2L32.727,14.617a1.938,1.938,0,0,0-3.482.154h0L8.953,49.912l.02.011a1.927,1.927,0,0,0-.445,1.225A1.948,1.948,0,0,0,10.475,53.1H51.581a1.944,1.944,0,0,0,1.783-2.725Zm-22.317-.953a2.788,2.788,0,0,1-2.822-2.783,2.8,2.8,0,1,1,5.6,0A2.779,2.779,0,0,1,31.047,49.417ZM33.83,24.8V40.157h0s0,.005,0,.009A1.135,1.135,0,0,1,32.694,41.3H29.381a1.138,1.138,0,0,1-1.152-1.136s0-.005,0-.009h0V24.845c0-.014,0-.028,0-.042a1.131,1.131,0,0,1,1.05-1.127v-.009h3.411a1.135,1.135,0,0,1,1.141,1.106h0V24.8h0Z" transform="translate(-8.528 -13.602)"/>
</svg>
