<?xml version="1.0" encoding="utf-8"?>
<svg xmlns="http://www.w3.org/2000/svg" width="13.762" height="16.194" viewBox="0 0 13.762 16.194">
  <g id="fi-book" transform="translate(0)">
    <path id="Path_65" data-name="Path 65" d="M31.7,14.418h0a.352.352,0,0,0-.346-.341H30.63V27.041a.353.353,0,0,1-.347.353H19.359a.353.353,0,0,1-.347-.3v-.773H29.191a.353.353,0,0,0,.353-.353.009.009,0,0,0,0,0V12.622a.353.353,0,0,0-.353-.353H18.29a.353.353,0,0,0-.353.353s0,.009,0,.014V28.1s0,.008,0,.013,0,.008,0,.013v.016h0a.352.352,0,0,0,.35.324H31.351a.353.353,0,0,0,.347-.353V14.418Zm-12.692.341a.353.353,0,0,1,.353-.353h8.764a.353.353,0,0,1,.353.353h0v2.653h0a.353.353,0,0,1-.353.353H19.359a.353.353,0,0,1-.353-.353V14.759Z" transform="translate(-17.937 -12.269)" fill="gray"/>
  </g>
</svg>
