<svg xmlns="http://www.w3.org/2000/svg" viewBox="0 0 22.43 29.9"><defs><style>.cls-1{fill:#fff;}</style></defs><g id="Layer_2" data-name="Layer 2"><g id="Layer_1-2" data-name="Layer 1"><path class="cls-1" d="M22.43,7.48V7.12a1.41,1.41,0,0,0-.41-1L16.3.41a1.41,1.41,0,0,0-1-.41H1.4A1.39,1.39,0,0,0,0,1.4V28.5a1.39,1.39,0,0,0,1.4,1.4H21a1.4,1.4,0,0,0,1.41-1.4v-21Z"/><path d="M13.08,7.94V0H1.4A1.39,1.39,0,0,0,0,1.4V28.5a1.39,1.39,0,0,0,1.4,1.4H21a1.4,1.4,0,0,0,1.41-1.4V9.34H14.48A1.4,1.4,0,0,1,13.08,7.94Zm3.51,6.22-3.51,5.46,3.51,5.46A.7.7,0,0,1,16,26.16H14a.73.73,0,0,1-.62-.36c-1.14-2.12-2.13-4-2.13-4-.37.87-.58,1.17-2.13,4a.71.71,0,0,1-.62.37h-2a.7.7,0,0,1-.59-1.08l3.53-5.46L5.83,14.17a.7.7,0,0,1,.59-1.08h2a.72.72,0,0,1,.62.37c1.52,2.85,1.16,2,2.13,4,0,0,.36-.69,2.14-4a.7.7,0,0,1,.62-.37h2a.69.69,0,0,1,.59,1.07Zm5.84-7v.36H15V0h.36a1.41,1.41,0,0,1,1,.41L22,6.13A1.41,1.41,0,0,1,22.43,7.12Z"/></g></g></svg>