<?xml version="1.0" encoding="utf-8"?>
<svg id="fi-social-facebook" xmlns="http://www.w3.org/2000/svg" width="45" height="45" viewBox="0 0 45 45">
  <path id="Path_51" data-name="Path 51" d="M56.516,14H16.484A2.484,2.484,0,0,0,14,16.484V56.517A2.483,2.483,0,0,0,16.484,59H38.036V41.574H32.171V34.783h5.864V29.774c0-5.812,3.55-8.977,8.735-8.977a48.008,48.008,0,0,1,5.241.267v6.074l-3.6,0c-2.82,0-3.366,1.34-3.366,3.306v4.336h6.725L50.9,41.574H45.049V59H56.517A2.483,2.483,0,0,0,59,56.516V16.484A2.484,2.484,0,0,0,56.516,14Z" transform="translate(-14 -14)" fill="#fff"/>
</svg>
