<?xml version="1.0" encoding="utf-8"?>
<svg xmlns="http://www.w3.org/2000/svg" width="45" height="45" viewBox="0 0 45 45">
  <g id="fi-social-linkedin" transform="translate(0)">
    <path id="Path_50" data-name="Path 50" d="M55.667,14H17.322A3.284,3.284,0,0,0,14,17.243V55.753A3.286,3.286,0,0,0,17.322,59H55.667A3.3,3.3,0,0,0,59,55.753V17.243A3.293,3.293,0,0,0,55.667,14ZM27.346,52.346H20.669V30.872h6.677ZM24.007,27.936a3.87,3.87,0,1,1,3.868-3.871A3.869,3.869,0,0,1,24.007,27.936ZM52.344,52.346H45.677V41.9c0-2.491-.049-5.694-3.469-5.694-3.474,0-4,2.713-4,5.514V52.347H31.532V30.872h6.4V33.8h.091a7.016,7.016,0,0,1,6.316-3.468c6.754,0,8,4.446,8,10.231V52.346Z" transform="translate(-14 -14)" fill="#fff"/>
  </g>
</svg>
