<svg xmlns="http://www.w3.org/2000/svg" width="45" height="34.844" viewBox="0 0 45 34.844"><path d="M55.006,20.189H12.994A1.511,1.511,0,0,0,11.5,21.714v3.068a.516.516,0,0,0,.273.369L33.856,38.021a.371.371,0,0,0,.375,0L55.646,25.163c.12-.069.439-.25.559-.333.145-.1.295-.192.295-.373V21.713A1.511,1.511,0,0,0,55.006,20.189Z" transform="translate(-11.5 -20.189)" fill="#fff"/><path d="M79.423,35.612a.384.384,0,0,0-.385,0L66.672,42.89a.38.38,0,0,0-.184.273.392.392,0,0,0,.1.314L78.953,56.81a.377.377,0,0,0,.278.122.4.4,0,0,0,.14-.026.381.381,0,0,0,.242-.355V35.943A.381.381,0,0,0,79.423,35.612Z" transform="translate(-34.613 -27.105)" fill="#fff"/><path d="M40.7,51.865a.366.366,0,0,0-.462-.07l-4.853,2.917a1.859,1.859,0,0,1-1.873.013l-4.271-2.492a.368.368,0,0,0-.438.051L12.583,67.648a.386.386,0,0,0-.117.321.381.381,0,0,0,.183.287,1.421,1.421,0,0,0,.743.224H54.934a.371.371,0,0,0,.342-.23.385.385,0,0,0-.069-.411Z" transform="translate(-11.889 -33.636)" fill="#fff"/><path d="M25.117,44.136a.38.38,0,0,0-.069-.61l-12.98-7.414a.38.38,0,0,0-.568.332V55.9a.38.38,0,0,0,.228.348.371.371,0,0,0,.153.033.38.38,0,0,0,.259-.1Z" transform="translate(-11.5 -27.035)" fill="#fff"/></svg>