<?xml version="1.0" encoding="utf-8"?>
<svg id="fi-telephone" xmlns="http://www.w3.org/2000/svg" width="45" height="44.987" viewBox="0 0 45 44.987">
  <path id="Path_62" data-name="Path 62" d="M59.974,50.513a2.178,2.178,0,0,0-1.146-1.567l-9.215-5.43-.076-.042a2.736,2.736,0,0,0-1.245-.289,2.861,2.861,0,0,0-2.021.806l-2.72,2.721a1.592,1.592,0,0,1-.611.276c-.032,0-3.165-.228-8.933-6s-6-8.9-6-8.9a1.452,1.452,0,0,1,.274-.656L30.6,29.116a2.959,2.959,0,0,0,.577-3.228l-5.122-9.638a2.117,2.117,0,0,0-1.9-1.239,2.183,2.183,0,0,0-1.544.663l-6.323,6.308a4.841,4.841,0,0,0-1.242,2.506c-.055.406-1.177,10.088,12.1,23.365C38.413,59.121,47.2,60,49.628,60h0a6.879,6.879,0,0,0,.885-.046,4.843,4.843,0,0,0,2.5-1.238L59.331,52.4A2.177,2.177,0,0,0,59.974,50.513Z" transform="translate(-15 -15.01)" fill="#231f20"/>
</svg>
