<?xml version="1.0" encoding="utf-8"?>
<svg id="fi-web" xmlns="http://www.w3.org/2000/svg" width="45" height="45" viewBox="0 0 45 45">
  <path id="Path_61" data-name="Path 61" d="M35,12.5A22.5,22.5,0,1,0,57.5,35,22.5,22.5,0,0,0,35,12.5ZM18.738,37.981h3.451a22.4,22.4,0,0,0,5.3,11.741A16.58,16.58,0,0,1,18.738,37.981Zm3.451-5.963H18.738a16.583,16.583,0,0,1,8.747-11.741A22.4,22.4,0,0,0,22.189,32.018Zm9.829,13.817a16.481,16.481,0,0,1-3.788-7.853h3.788Zm0-13.817H28.23a16.484,16.484,0,0,1,3.788-7.853Zm19.243,0H47.811a22.4,22.4,0,0,0-5.3-11.74A16.584,16.584,0,0,1,51.261,32.018ZM37.982,45.834V37.981H41.77A16.492,16.492,0,0,1,37.982,45.834Zm0-13.816V24.165a16.481,16.481,0,0,1,3.788,7.853Zm4.532,17.705a22.4,22.4,0,0,0,5.3-11.742h3.451A16.58,16.58,0,0,1,42.514,49.723Z" transform="translate(-12.5 -12.5)" fill="#231f20"/>
</svg>
