<svg id="Layer_1" data-name="Layer 1" xmlns="http://www.w3.org/2000/svg" viewBox="0 0 330 330"><path d="M165 1a164 164 0 10164 164A164 164 0 00165 1zm51.14 201.55c-9 32.62-34.71 39.55-35.75 41.88-6.5 14.55-12.55 45.76-23 47.68-4.16.77-10.36-.07-10.36-.07 7.86-6.63 22.46-53.21 22.46-53.21C192 182 158.57 105.11 158.57 105.11c22.7 98.62-.8 136-.8 136-23.17-3.83-35.44-18.67-35.44-18.67-24.49-41.64-8.62-62.18 2.17-100.67s7.36-84.23 7.36-84.23c46.36 34.41 43.36 33.42 59.87 57.87 16.6 24.59 33.41 74.51 24.41 107.14z" fill="#99af3e"/></svg>