<svg id="Layer_1" data-name="Layer 1" xmlns="http://www.w3.org/2000/svg" viewBox="0 0 45 45"><defs><style>.cls-1{fill:#fff;}</style></defs><title>twitter</title><path class="cls-1" d="M22.5,0A22.5,22.5,0,1,0,45,22.5,22.5,22.5,0,0,0,22.5,0Zm8.23,18.28a2.3,2.3,0,0,1,0,.53,12.09,12.09,0,0,1-1.41,5.64A11.57,11.57,0,0,1,25.26,29a11.73,11.73,0,0,1-6.61,1.91A11.82,11.82,0,0,1,12.12,29c.29,0,.63,0,1,0a8.46,8.46,0,0,0,5.31-1.82A3.94,3.94,0,0,1,16,26.41a4.21,4.21,0,0,1-1.48-2.08c.27,0,.53,0,.77,0a4.92,4.92,0,0,0,1.14-.13,4.23,4.23,0,0,1-2.44-1.5,4,4,0,0,1-1-2.67V20a3.83,3.83,0,0,0,1.9.57A4.73,4.73,0,0,1,13.5,19,4,4,0,0,1,13,17a4.06,4.06,0,0,1,.61-2.13A11.69,11.69,0,0,0,17.45,18a12,12,0,0,0,4.89,1.3,5.4,5.4,0,0,1-.08-1,4.29,4.29,0,0,1,.56-2.13,4.22,4.22,0,0,1,1.55-1.56,4.06,4.06,0,0,1,2.1-.57,4,4,0,0,1,1.73.37,4.88,4.88,0,0,1,1.4,1,8.91,8.91,0,0,0,2.72-1,4.26,4.26,0,0,1-1.87,2.35,9.25,9.25,0,0,0,2.43-.69A9.11,9.11,0,0,1,30.73,18.28Z"/></svg>