<svg id="Layer_1" data-name="Layer 1" xmlns="http://www.w3.org/2000/svg" viewBox="0 0 330 330"><defs><style>.cls-1{fill:gray;}</style></defs><title>Windstorm &amp;amp; Hurricane</title><path class="cls-1" d="M159.43,145a20.33,20.33,0,1,0,20.33,20.33A20.33,20.33,0,0,0,159.43,145Z"/><path class="cls-1" d="M165,0A165,165,0,1,0,330,165,165,165,0,0,0,165,0Zm46.87,118.75c23,25.64,21.8,64.71,2.07,90.76-21.22,28-52.08,41.48-63.94,45.07-51.57,15.62-96.64,3.54-96.64,3.54a163.67,163.67,0,0,0,36.53-9.44c20.92-8.24,27.4-25.62,16.21-39.47C90.45,189.85,80,157.43,105.21,122c25.34-35.65,61.22-47.13,81.92-51.56s51-3.83,77.48.89C241.34,76,221.81,81.26,211.28,94A18.62,18.62,0,0,0,211.87,118.75Z"/></svg>