<svg xmlns="http://www.w3.org/2000/svg" width="40.822" height="54.429" viewBox="0 0 40.822 54.429">
  <path id="file-word" d="M23.813,14.458V0H2.551A2.545,2.545,0,0,0,0,2.551V51.878a2.545,2.545,0,0,0,2.551,2.551H38.271a2.545,2.545,0,0,0,2.551-2.551V17.009H26.364A2.559,2.559,0,0,1,23.813,14.458Zm6.07,12.757h2.541a1.276,1.276,0,0,1,1.244,1.563l-4.04,17.86a1.264,1.264,0,0,1-1.244.989h-4.04a1.274,1.274,0,0,1-1.233-.967c-2.743-11-2.211-8.632-2.721-11.747h-.053c-.117,1.52-.255,1.85-2.721,11.747a1.274,1.274,0,0,1-1.233.967H12.438a1.274,1.274,0,0,1-1.244-1L7.176,28.767A1.271,1.271,0,0,1,8.42,27.215h2.6a1.275,1.275,0,0,1,1.254,1.031c1.658,8.292,2.137,11.641,2.232,12.991.17-1.084.776-3.476,3.125-13.044a1.265,1.265,0,0,1,1.244-.967h3.094a1.275,1.275,0,0,1,1.244.978c2.551,10.673,3.062,13.182,3.147,13.756-.021-1.191-.276-1.892,2.3-13.735A1.232,1.232,0,0,1,29.883,27.215ZM40.822,12.959v.648H27.215V0h.648A2.549,2.549,0,0,1,29.67.744L40.078,11.162A2.543,2.543,0,0,1,40.822,12.959Z" transform="translate(0 0)"/>
</svg>
