<?xml version="1.0" encoding="utf-8"?>
<svg xmlns="http://www.w3.org/2000/svg" width="45" height="36.569" viewBox="0 0 45 36.569">
  <path id="fi-social-twitter" d="M56.5,23.041a18.445,18.445,0,0,1-5.3,1.453,9.257,9.257,0,0,0,4.059-5.106,18.457,18.457,0,0,1-5.862,2.239A9.24,9.24,0,0,0,33.66,30.049,26.209,26.209,0,0,1,14.631,20.4a9.242,9.242,0,0,0,2.857,12.326,9.211,9.211,0,0,1-4.181-1.155c0,.039,0,.077,0,.116a9.239,9.239,0,0,0,7.4,9.052,9.268,9.268,0,0,1-4.169.158,9.243,9.243,0,0,0,8.624,6.412A18.642,18.642,0,0,1,11.5,51.134a26.131,26.131,0,0,0,14.152,4.147c16.981,0,26.267-14.067,26.267-26.266q0-.6-.027-1.2A18.719,18.719,0,0,0,56.5,23.041Z" transform="translate(-11.497 -18.712)" fill="#fff"/>
</svg>
