<?xml version="1.0" encoding="utf-8"?>
<svg id="fi-social-youtube" xmlns="http://www.w3.org/2000/svg" width="45" height="45" viewBox="0 0 45 45">
  <g id="Group_23" data-name="Group 23">
    <g id="Group_22" data-name="Group 22">
      <path id="Path_29" data-name="Path 29" d="M43.391,66.344c-.483.683-.941,1.02-1.378,1.02-.292,0-.458-.171-.51-.51a6.419,6.419,0,0,1-.021-.847V57.146H39.3v9.517a6.087,6.087,0,0,0,.192,1.789,1.337,1.337,0,0,0,1.4.9,3.49,3.49,0,0,0,2.491-1.478v1.313h2.183V57.147H43.391Z" transform="translate(-23.74 -31.147)" fill="#fff"/>
      <path id="Path_30" data-name="Path 30" d="M27.9,53.492h2.565V67.37h2.425V53.492H35.5V51.218H27.9Z" transform="translate(-19.384 -29.19)" fill="#fff"/>
      <path id="Path_31" data-name="Path 31" d="M48.818,35.6c.71,0,1.051-.562,1.051-1.688V28.8c0-1.124-.34-1.685-1.051-1.685s-1.052.56-1.052,1.685v5.117C47.767,35.041,48.107,35.6,48.818,35.6Z" transform="translate(-26.765 -19.104)" fill="#fff"/>
      <path id="Path_32" data-name="Path 32" d="M55.483,55.188a2.951,2.951,0,0,0-2.252,1.306V51.218H51.05V67.37h2.181V66.2a2.966,2.966,0,0,0,2.252,1.333,1.727,1.727,0,0,0,1.744-1.352,9.652,9.652,0,0,0,.219-2.425V58.966a9.317,9.317,0,0,0-.219-2.419A1.727,1.727,0,0,0,55.483,55.188Zm-.217,8.741c0,1.087-.32,1.623-.949,1.623a1.555,1.555,0,0,1-1.087-.535V57.68a1.567,1.567,0,0,1,1.087-.53c.629,0,.949.557.949,1.642Z" transform="translate(-28.271 -29.209)" fill="#fff"/>
      <path id="Path_33" data-name="Path 33" d="M65.989,56.935a3.1,3.1,0,0,0-2.611,1.235A4.674,4.674,0,0,0,62.7,61V65.22a4.652,4.652,0,0,0,.7,2.829,3.122,3.122,0,0,0,2.64,1.233,3.02,3.02,0,0,0,2.637-1.3,3.132,3.132,0,0,0,.509-1.308c.019-.219.047-.7.047-1.4v-.319H67.011a14.054,14.054,0,0,1-.047,1.478.938.938,0,0,1-.974.874c-.749,0-1.112-.556-1.112-1.669V63.5h4.36V61a4.726,4.726,0,0,0-.675-2.833A3.027,3.027,0,0,0,65.989,56.935Zm1.067,4.746h-2.18V60.568q0-1.669,1.093-1.669c.722,0,1.087.557,1.087,1.669Z" transform="translate(-32.772 -31.078)" fill="#fff"/>
      <path id="Path_34" data-name="Path 34" d="M54.625,14H18.375A4.388,4.388,0,0,0,14,18.375v36.25A4.388,4.388,0,0,0,18.375,59h36.25A4.388,4.388,0,0,0,59,54.625V18.375A4.388,4.388,0,0,0,54.625,14ZM40.613,20.544h1.977V28.6a4.557,4.557,0,0,0,.024.772c.044.308.2.464.465.464.4,0,.813-.308,1.253-.929V20.544h1.984V31.487H44.331V30.294a3.185,3.185,0,0,1-2.266,1.346,1.216,1.216,0,0,1-1.278-.814,5.532,5.532,0,0,1-.176-1.628Zm-7.492,3.567a4.251,4.251,0,0,1,.621-2.578,2.942,2.942,0,0,1,4.623,0,4.3,4.3,0,0,1,.616,2.578v3.834a4.292,4.292,0,0,1-.616,2.574,2.945,2.945,0,0,1-4.623,0,4.245,4.245,0,0,1-.621-2.574Zm-5.3-7.31,1.562,5.767,1.5-5.767H33.1L30.457,25.54v5.947h-2.2V25.54a36.037,36.037,0,0,0-1.344-4.647c-.464-1.363-.947-2.731-1.41-4.092ZM52.171,52.449a4.1,4.1,0,0,1-3.51,3.19,108.978,108.978,0,0,1-12.161.45,108.967,108.967,0,0,1-12.161-.45,4.1,4.1,0,0,1-3.509-3.19,34.793,34.793,0,0,1-.566-7.676,34.761,34.761,0,0,1,.573-7.677,4.1,4.1,0,0,1,3.509-3.189,108.967,108.967,0,0,1,12.161-.451,108.978,108.978,0,0,1,12.161.451,4.1,4.1,0,0,1,3.509,3.189,34.8,34.8,0,0,1,.563,7.677A34.719,34.719,0,0,1,52.171,52.449Z" transform="translate(-14 -14)" fill="#fff"/>
    </g>
  </g>
</svg>
